<svg xmlns="http://www.w3.org/2000/svg" xmlns:xlink="http://www.w3.org/1999/xlink" viewBox="0 0 803 1061"><defs><style>.cls-1{fill:url(#linear-gradient);}.cls-2{fill:#fff;}</style><linearGradient id="linear-gradient" y1="530.5" x2="803" y2="530.5" gradientUnits="userSpaceOnUse"><stop offset="0" stop-color="#1b9b71"/><stop offset="1" stop-color="#13b23d"/></linearGradient></defs><title>x2</title><g id="Layer_2" data-name="Layer 2"><g id="Layer_1-2" data-name="Layer 1"><path class="cls-1" d="M771,1061H32a32,32,0,0,1-32-32V32A32,32,0,0,1,32,0H592.76a32,32,0,0,1,23.78,10.57l178.2,197.28A32,32,0,0,1,803,229.33V1029A32,32,0,0,1,771,1061Z"/><rect class="cls-2" x="70" y="165" width="302.85" height="47" rx="23.5"/><rect class="cls-2" x="70" y="283" width="417" height="47" rx="23.5"/><rect class="cls-2" x="70" y="401" width="569" height="47" rx="23.5"/><rect class="cls-2" x="70" y="531" width="336" height="321" rx="23.5"/></g></g></svg>